<?xml version="1.0" encoding="UTF-8"?>
<!DOCTYPE svg PUBLIC "-//W3C//DTD SVG 1.1//EN" "http://www.w3.org/Graphics/SVG/1.1/DTD/svg11.dtd">
<!-- Creator: CorelDRAW -->
<svg 
	xmlns="http://www.w3.org/2000/svg" 
	xml:space="preserve" 
	width="210mm" 
	height="297mm" 
	style="shape-rendering:geometricPrecision; text-rendering:geometricPrecision; image-rendering:optimizeQuality; fill-rule:evenodd; clip-rule:evenodd"
	viewBox="0 0 210 297"
 	xmlns:xlink="http://www.w3.org/1999/xlink">
 <defs>
  <style type="text/css">
   <![CDATA[
    .str0 {stroke:#1F1A17;stroke-width:0.1}
    .fil0 {fill:none;fill-rule:nonzero}
   ]]>
  </style>
 </defs>
 <g id="图层_x0020_1">
  <metadata id="CorelCorpID_0Corel-Layer"/>
  <path class="fil0 str0" d="M125.783 164.107l-37.688 0 -7.5447 31.8595c-0.5721,2.789 -0.8582,5.006 -0.8582,6.6866 0,2.2527 0.4291,4.4696 1.2873,6.7223 0.8224,2.2169 3.1824,3.3612 7.1156,3.3612l2.503 0 0 5.0059 -31.0013 0 0 -5.0059 2.503 0c2.2527,0 4.1835,-0.7152 5.8641,-2.1097 1.6806,-1.3945 2.7891,-3.7545 3.3612,-7.1157l32.6819 -128.225 12.5865 -4.1836 31.8238 132.408c1.1442,3.3612 2.5387,5.7212 4.1836,7.1157 1.6805,1.3945 3.6472,2.1097 5.8999,2.1097l2.503 0 0 5.0059 -36.0431 0 0 -5.0059 3.3611 0c3.3612,0 5.2921,-0.7152 5.8642,-2.1097 0.5363,-1.3945 0.8224,-2.646 0.8224,-3.7545 0,-2.2527 -0.2861,-4.2193 -0.8224,-5.8999l-8.4029 -36.8655zm-17.5925 -74.5892l-0.8224 0 -17.5925 69.5832 35.185 0 -16.7701 -69.5832z"/>
 </g>
</svg>
